<?xml version="1.0" standalone="no"?><!DOCTYPE svg PUBLIC "-//W3C//DTD SVG 1.1//EN" "http://www.w3.org/Graphics/SVG/1.1/DTD/svg11.dtd"><svg xmlns:xlink="http://www.w3.org/1999/xlink" xmlns="http://www.w3.org/2000/svg" version="1.1" width="200" height="200" viewBox="0 0 200 200"><defs><style type="text/css"><![CDATA[
@font-face {
  font-family: "ifont";
  src: url("//at.alicdn.com/t/font_1442373896_4754455.eot?#iefix") format("embedded-opentype"), url("//at.alicdn.com/t/font_1442373896_4754455.woff") format("woff"), url("//at.alicdn.com/t/font_1442373896_4754455.ttf") format("truetype"), url("//at.alicdn.com/t/font_1442373896_4754455.svg#ifont") format("svg");
}

]]></style></defs><g class="transform-group"><g transform="scale(0.1953125, 0.1953125)"><path d="M554.607912 724.794477l0-49.66719c75.215052-30.80561 166.93501-128.929418 190.828186-243.236813 19.964704-4.513804 35.134195-27.643594 35.134195-55.56348 0-25.232684-12.399401-46.600341-29.535687-53.79316-2.140757-131.713834-14.869662-214.45428-74.589812-195.941648C596.17154 25.408693 326.768787 49.021483 287.899524 182.584432c-11.390421 39.144532-16.782222 87.745437-18.726503 141.230582-15.757892 8.18952-26.916023 28.600385-26.916023 52.513004 0 26.157753 13.320377 48.101531 31.414477 54.489008 22.759353 118.265544 114.365724 219.36308 195.134259 246.90332l0 47.075155c-142.274354 8.490372-263.007089 58.504462-324.546677 128.684848l0 105.989963 335.76416 0c0 0 22.299889-149.720953 29.825282-149.720953s29.825282 149.720953 29.825282 149.720953l339.479785 0L879.153566 853.479325C817.612954 783.298939 696.879196 733.284849 554.607912 724.794477zM509.847475 793.718243c-10.434653 0-29.825282-51.65138-29.825282-51.65138l59.650565 0C539.673781 742.066863 520.283152 793.718243 509.847475 793.718243z" fill="#272636"></path></g></g></svg>